<?xml version="1.0" encoding="UTF-8"?><svg id="Layer_9" xmlns="http://www.w3.org/2000/svg" width="251.02" height="62.75" viewBox="0 0 251.02 62.75"><path d="m37.3,1.35h1.35c.24,7.1-5.57,14.38-12.97,14.25-.13-6.81,4.98-12.94,11.62-14.25Zm165.31,3.64c3.09-2.06,7.61,1.08,6.96,4.7-.12,2.58-2.59,3.96-4.83,4.5-1.2-.53-2.58-.83-3.45-1.88-2.08-2.08-1.35-6.1,1.33-7.32Zm-143.36.36c3.28,0,6.56.02,9.84-.03,6.17,14.74,12.11,29.57,18.16,44.36,6.21-14.71,12.04-29.58,18.17-44.33,3.29,0,6.56,0,9.84,0,.04,18.37,0,36.74.02,55.1-2.59,0-5.17-.02-7.76.06-.16-13.43.13-26.86-.14-40.28-.58,1.04-1.11,2.1-1.58,3.19-5.04,12.35-10.17,24.67-15.23,37.01-2.22.03-4.45.03-6.66-.1-5.3-13.54-11.13-26.89-16.5-40.4-.34,13.48-.07,26.97-.14,40.46-2.68.07-5.35.06-8.02.07,0-18.38-.03-36.76.02-55.13h0Z" style="fill:#f3f0eb;"/><path d="m14.02,15.83c4.34-.77,8.14,1.85,12.26,2.56,3.89-.83,7.51-3.09,11.62-2.74,4.57-.1,8.81,2.26,11.69,5.69-4.39,2.84-7.56,7.89-6.61,13.26.31,4.95,4.1,8.67,8.22,10.93-2.22,5.59-5.26,11.33-10.34,14.81-5.1,3.24-10.21-2.62-15.52-1.28-2.64.51-5.1,1.66-7.71,2.34h-2.1c-1.73-.68-3.38-1.62-4.68-2.96C5.05,52.39,1.34,44.39.41,36.06v-4.47c.46-7.46,5.95-14.75,13.61-15.76Zm154.35,6.73c5.93-3.67,13.89-3.83,20.06-.61,3.82,2.02,6.13,6.11,6.37,10.38-2.54.02-5.06.02-7.59,0-.68-1.5-1.08-3.24-2.37-4.37-2.28-2.04-5.59-2.28-8.46-1.73-2.43.54-5.13,2.44-4.83,5.23-.24,2.19,1.72,3.66,3.54,4.33,4.55,1.64,9.5,1.95,13.98,3.83,2.44,1.01,4.84,2.64,5.82,5.2,2.07,4.5.27,10.16-3.64,13.05-2.69,2.04-5.99,3.08-9.28,3.54h-6.04c-3.8-.69-7.74-2.03-10.38-5-2.03-2.05-2.75-4.9-3.32-7.63,2.72-.03,5.44.03,8.16.26.93,2.4,2.39,4.97,5.1,5.6,3.51.75,7.91.93,10.67-1.78,2.02-1.97,1.53-5.66-1.05-6.91-6.06-2.84-13.76-2.11-18.87-6.99-4.8-4.51-3.32-13.04,2.11-16.4h0Zm54.25-.1c5.92-3.54,13.69-3.73,19.81-.58,4.61,2.39,7.62,7.24,8.18,12.35-2.59.04-5.18.06-7.77.08-.92-2.04-1.63-4.37-3.52-5.75-2.65-2.09-6.36-2.3-9.52-1.46-4,1.28-6.29,5.38-6.98,9.31-.61,4.84-.53,10.24,2.55,14.3,3.12,4.29,9.77,4.97,13.94,1.9,1.88-1.34,2.61-3.63,3.51-5.65,2.59.02,5.19,0,7.78.04-.51,7.92-7.71,13.82-15.35,14.4h-4.37c-4.46-.57-8.92-2.4-11.91-5.86-3.76-4.32-5.14-10.23-4.86-15.85-.11-6.61,2.74-13.64,8.5-17.23h0Zm-99.89-2.09c2.74,0,5.49,0,8.23-.02.25,8.97-.28,17.97.27,26.93.34,6.94,9.66,8.99,14.41,5.06,2.54-2,3.69-5.32,3.6-8.48.03-7.83-.05-15.67.03-23.5,2.76,0,5.52,0,8.28,0,.02,13.46.05,26.91,0,40.37-2.69.02-5.38-.06-8.06-.33,0-2.18,0-4.35,0-6.53-2.08,4.2-6.18,7.2-10.92,7.54h-3.57c-3.63-.52-7.29-2.12-9.46-5.17-2.29-3.04-2.89-6.96-2.84-10.67.02-8.4,0-16.8.02-25.2h0Zm78.02,0c2.63.02,5.25.03,7.87-.06.23,1.18.42,2.36.44,3.56-.05,12.19,0,24.38-.03,36.57-2.77.05-5.54.04-8.31.04,0-13.37-.04-26.74.03-40.12Z" style="fill:#f3f0eb;"/></svg>