<?xml version="1.0" encoding="UTF-8"?><svg id="Layer_9" xmlns="http://www.w3.org/2000/svg" width="64" height="64" viewBox="0 0 64 64"><path d="m64,17.73c0-.64-.01-1.29-.03-1.93-.04-1.4-.12-2.82-.37-4.2-.25-1.41-.67-2.72-1.32-4-.64-1.26-1.48-2.41-2.47-3.4-1-1-2.15-1.83-3.4-2.47-1.28-.65-2.59-1.06-3.99-1.32-1.39-.25-2.8-.33-4.2-.37-.64-.02-1.29-.02-1.93-.03-.76,0-1.53,0-2.29,0h-23.96c-.76,0-1.53,0-2.29,0-.64,0-1.29.01-1.93.03-1.4.04-2.82.12-4.2.37-1.41.25-2.72.67-3.99,1.32-1.26.64-2.41,1.48-3.4,2.47-1,1-1.83,2.15-2.47,3.4-.65,1.28-1.06,2.59-1.32,4-.25,1.39-.33,2.8-.37,4.2-.02.64-.02,1.29-.03,1.93,0,.76,0,1.53,0,2.29v23.96c0,.76,0,1.53,0,2.29,0,.64.01,1.29.03,1.93.04,1.4.12,2.82.37,4.2.25,1.41.67,2.72,1.32,4,.64,1.26,1.48,2.41,2.47,3.4,1,1,2.15,1.83,3.4,2.47,1.28.65,2.59,1.06,3.99,1.32,1.39.25,2.8.33,4.2.37.64.02,1.29.02,1.93.03.76,0,1.53,0,2.29,0h23.96c.76,0,1.53,0,2.29,0,.64,0,1.29-.01,1.93-.03,1.4-.04,2.82-.12,4.2-.37,1.41-.25,2.72-.66,3.99-1.32,1.26-.64,2.41-1.48,3.4-2.47,1-1,1.83-2.15,2.47-3.4.65-1.28,1.06-2.59,1.32-4,.25-1.39.33-2.8.37-4.2.02-.64.02-1.29.03-1.93,0-.76,0-1.53,0-2.29v-23.96c0-.76,0-1.53,0-2.29Zm-17.15,23.92c0,.81,0,1.55-.18,2.36-.17.79-.47,1.53-.93,2.2-.46.66-1.06,1.21-1.75,1.62-.7.41-1.44.65-2.22.81-1.48.3-2.48.36-3.43.17-.91-.18-1.69-.6-2.31-1.17-.92-.84-1.49-1.98-1.62-3.17-.15-1.39.32-2.88,1.36-3.98.53-.55,1.19-.99,2.08-1.34.93-.36,1.95-.57,3.52-.89l1.24-.25c.54-.11,1.01-.25,1.39-.71.38-.46.39-1.03.39-1.59v-14.1c0-1.08-.48-1.37-1.51-1.18-.74.14-16.55,3.33-16.55,3.33-.89.22-1.21.51-1.21,1.61v20.65c0,.81-.04,1.55-.21,2.36-.17.79-.47,1.53-.93,2.2-.46.66-1.06,1.21-1.75,1.62-.7.41-1.44.66-2.22.82-1.48.3-2.48.36-3.43.17-.91-.18-1.69-.62-2.31-1.18-.92-.84-1.45-1.98-1.58-3.17-.15-1.39.28-2.88,1.33-3.98.53-.55,1.19-.99,2.08-1.34.93-.36,1.95-.57,3.52-.89.41-.08.83-.17,1.24-.25.54-.11,1.01-.25,1.39-.71.38-.46.42-1,.42-1.56v-23.81c0-.32.03-.54.04-.64.08-.5.28-.93.64-1.24.3-.25.69-.43,1.19-.53h0s19.02-3.84,19.02-3.84c.17-.03,1.54-.28,1.69-.29,1.03-.09,1.61.59,1.61,1.68v30.19h0Z" style="fill:#f3f0eb; fill-rule:evenodd;"/></svg>