<?xml version="1.0" encoding="UTF-8"?><svg id="Layer_9" xmlns="http://www.w3.org/2000/svg" width="64" height="64" viewBox="0 0 64 64"><path d="m52.92,14.92c0-2.13-1.72-3.84-3.84-3.84-2.12,0-3.84,1.72-3.84,3.84s1.73,3.84,3.84,3.84,3.84-1.72,3.84-3.84" style="fill:#f3f0eb;"/><path d="m58.04,44.93c-.14,3.12-.66,4.82-1.1,5.94-.58,1.49-1.28,2.56-2.4,3.68-1.11,1.12-2.18,1.81-3.67,2.39-1.13.44-2.83.96-5.95,1.11-3.37.15-4.37.18-12.93.18s-9.55-.03-12.93-.18c-3.12-.15-4.81-.67-5.94-1.11-1.5-.58-2.56-1.27-3.68-2.39-1.13-1.12-1.82-2.19-2.4-3.68-.43-1.13-.96-2.82-1.1-5.94-.16-3.37-.19-4.39-.19-12.93s.03-9.56.19-12.93c.13-3.12.66-4.81,1.1-5.95.57-1.49,1.27-2.55,2.4-3.67,1.12-1.12,2.18-1.81,3.68-2.39,1.13-.44,2.82-.96,5.94-1.11,3.37-.15,4.38-.19,12.93-.19s9.55.04,12.93.19c3.12.15,4.82.66,5.95,1.11,1.49.58,2.56,1.28,3.67,2.39,1.13,1.12,1.82,2.18,2.4,3.67.43,1.14.96,2.83,1.1,5.95.16,3.37.19,4.38.19,12.93s-.04,9.55-.19,12.93h0Zm5.76-26.12c-.16-3.41-.69-5.74-1.49-7.77-.81-2.1-1.9-3.89-3.69-5.67-1.78-1.78-3.56-2.87-5.66-3.69-2.04-.79-4.36-1.33-7.77-1.48C41.78.03,40.69,0,32,0s-9.78.03-13.2.19c-3.4.15-5.72.69-7.77,1.48-2.1.82-3.88,1.91-5.66,3.69-1.78,1.78-2.87,3.57-3.69,5.67-.79,2.03-1.33,4.36-1.49,7.77-.15,3.41-.19,4.5-.19,13.2s.04,9.78.19,13.19c.16,3.4.7,5.73,1.49,7.77.82,2.1,1.91,3.89,3.69,5.66,1.78,1.78,3.56,2.87,5.66,3.69,2.05.79,4.37,1.33,7.77,1.48,3.41.16,4.51.19,13.2.19s9.78-.04,13.2-.19,5.73-.69,7.77-1.48c2.1-.82,3.89-1.92,5.66-3.69,1.78-1.78,2.87-3.57,3.69-5.66.8-2.04,1.34-4.37,1.49-7.77.16-3.41.19-4.5.19-13.19s-.04-9.79-.19-13.2h0Z" style="fill:#f3f0eb;"/><path d="m32,42.66c-5.89,0-10.67-4.77-10.67-10.66s4.78-10.67,10.67-10.67,10.67,4.78,10.67,10.67-4.78,10.66-10.67,10.66Zm0-27.1c-9.08,0-16.43,7.37-16.43,16.44s7.35,16.43,16.43,16.43,16.43-7.36,16.43-16.43-7.36-16.44-16.43-16.44Z" style="fill:#f3f0eb;"/></svg>