<?xml version="1.0" encoding="UTF-8"?><svg id="Layer_1" xmlns="http://www.w3.org/2000/svg" width="63.57" height="12.81" xmlns:xlink="http://www.w3.org/1999/xlink" viewBox="0 0 63.57 12.81"><defs><style>.cls-1{fill:url(#radial-gradient);}.cls-1,.cls-2,.cls-3,.cls-4,.cls-5,.cls-6,.cls-7,.cls-8{fill-rule:evenodd;}.cls-2{fill:url(#linear-gradient);}.cls-3{fill:url(#radial-gradient-5);}.cls-4{fill:url(#radial-gradient-3);}.cls-5{fill:url(#radial-gradient-2);}.cls-6{fill:url(#radial-gradient-4);}.cls-7{fill:#fff;}</style><linearGradient id="linear-gradient" x1="-821.34" y1="42.12" x2="-821.34" y2="42.1" gradientTransform="translate(380574.93 19522.86) scale(463.35 -463.46)" gradientUnits="userSpaceOnUse"><stop offset="0" stop-color="#ef4db7"/><stop offset="1" stop-color="#c643fd"/></linearGradient><radialGradient id="radial-gradient" cx="-817.89" cy="39.68" fx="-817.89" fy="39.68" r=".11" gradientTransform="translate(72928.91 3542.85) scale(89.17 -89.07)" gradientUnits="userSpaceOnUse"><stop offset="0" stop-color="#fbe3f8"/><stop offset=".74" stop-color="#fbe3f8"/><stop offset=".81" stop-color="#fadef6"/><stop offset=".88" stop-color="#f9d1f0"/><stop offset=".95" stop-color="#f6bae7"/><stop offset=".98" stop-color="#f5b1e3"/><stop offset="1" stop-color="#f5b1e3"/></radialGradient><radialGradient id="radial-gradient-2" cx="-819.15" cy="41.62" fx="-819.15" fy="41.62" r=".09" gradientTransform="translate(88768.8 4518.78) scale(108.37 -108.38)" gradientUnits="userSpaceOnUse"><stop offset="0" stop-color="#f9e3fb"/><stop offset=".75" stop-color="#f9e3fb"/><stop offset=".81" stop-color="#f8defb"/><stop offset=".88" stop-color="#f3d0fa"/><stop offset=".96" stop-color="#ecbaf9"/><stop offset=".98" stop-color="#eab2f9"/><stop offset="1" stop-color="#eab2f9"/></radialGradient><radialGradient id="radial-gradient-3" cx="-815.3" cy="40.26" fx="-815.3" fy="40.26" r=".15" gradientTransform="translate(69025.08 3419.06) scale(84.67 -84.92)" gradientUnits="userSpaceOnUse"><stop offset="0" stop-color="#fae1f8"/><stop offset=".6" stop-color="#fae1f8"/><stop offset=".85" stop-color="#f7d6f7"/><stop offset="1" stop-color="#f7d6f7"/></radialGradient><radialGradient id="radial-gradient-4" cx="-818.06" cy="41.77" fx="-818.06" fy="41.77" r=".09" gradientTransform="translate(88660.32 4536.75) scale(108.37 -108.28)" gradientUnits="userSpaceOnUse"><stop offset="0" stop-color="#fae9fc"/><stop offset=".67" stop-color="#fae9fc"/><stop offset=".81" stop-color="#f8defa"/><stop offset=".91" stop-color="#f6d4f8"/><stop offset="1" stop-color="#f6d4f8"/></radialGradient><radialGradient id="radial-gradient-5" cx="-818.91" cy="40.1" fx="-818.91" fy="40.1" r=".11" gradientTransform="translate(69336 3419.06) scale(84.66 -84.92)" gradientUnits="userSpaceOnUse"><stop offset="0" stop-color="#fae9fb"/><stop offset=".68" stop-color="#fae9fb"/><stop offset=".81" stop-color="#f8def8"/><stop offset=".98" stop-color="#f5caf2"/><stop offset="1" stop-color="#f5caf2"/></radialGradient></defs><path class="cls-2" d="m4.12,0h-.77c-.28,0-.56.04-.84.08-.56.1-1.07.36-1.48.75-.41.4-.67.92-.77,1.48-.04.28-.07.56-.07.84v.75s0,4.98,0,4.98c0,.25,0,.5,0,.75.01.28.03.56.08.84.1.56.36,1.07.75,1.48.4.41.92.67,1.48.77.28.05.56.06.84.07.25,0,.51,0,.77,0h5.72c.28,0,.56-.03.84-.08.56-.1,1.07-.36,1.48-.75.41-.4.67-.92.77-1.48.05-.28.07-.56.07-.85,0-.25,0-.5,0-.75V3.16c-.01-.28-.03-.56-.08-.84-.1-.56-.36-1.07-.75-1.48-.4-.41-.92-.67-1.48-.77-.28-.05-.56-.06-.85-.07h-.77s-4.95,0-4.95,0Z"/><path class="cls-8" d="m60.16,7.03h2.32c-.03-.71-.48-1.17-1.14-1.17s-1.13.47-1.18,1.17Zm3.21,1.38c-.12.84-.94,1.42-1.99,1.42-1.35,0-2.19-.9-2.19-2.36s.85-2.4,2.15-2.4,2.09.88,2.09,2.29v.33h-3.28v.05c0,.8.5,1.32,1.25,1.32.53,0,.94-.25,1.07-.65h.9,0Zm-6.73-3.27h.9v.79h.03c.13-.51.59-.85,1.11-.84.14,0,.26.02.33.04v.89c-.14-.04-.28-.06-.43-.05-.61,0-.99.41-.99,1.06v2.75h-.95v-4.64h0Zm-1.71,2.32c0-1-.46-1.59-1.22-1.59s-1.23.6-1.23,1.59.46,1.59,1.23,1.59,1.23-.59,1.23-1.59h0Zm-3.43,0c0-1.46.86-2.38,2.2-2.38s2.2.92,2.2,2.38-.85,2.38-2.19,2.38-2.2-.92-2.2-2.38h0Zm-1.35-3.42v1.1h.88v.75h-.88v2.56c0,.4.18.58.56.58.1,0,.26-.01.32-.02v.75c-.1.03-.32.05-.53.05-.94,0-1.3-.36-1.3-1.25v-2.65h-.67v-.75h.67v-1.1h.95Zm-5.92,3.96c.08.63.69,1.05,1.53,1.05s1.38-.41,1.38-.98c0-.49-.35-.79-1.17-.99l-.82-.2c-1.17-.28-1.71-.82-1.71-1.71,0-1.1.95-1.85,2.31-1.85s2.26.75,2.3,1.85h-.96c-.06-.64-.58-1.02-1.35-1.02s-1.29.39-1.29.95c0,.45.33.71,1.15.92l.7.17c1.31.31,1.85.84,1.85,1.76,0,1.19-.94,1.94-2.45,1.94-1.41,0-2.36-.73-2.42-1.88h.97Zm-5.27-2.92c1.03,0,1.76.57,1.79,1.39h-.89c-.04-.41-.39-.66-.92-.66s-.86.24-.86.6c0,.28.23.46.71.58l.78.18c.93.22,1.29.57,1.29,1.24,0,.84-.79,1.41-1.93,1.41s-1.83-.56-1.9-1.41h.94c.07.44.42.68,1,.68s.93-.23.93-.6c0-.29-.18-.44-.66-.57l-.83-.2c-.84-.2-1.27-.63-1.27-1.28,0-.82.74-1.38,1.82-1.38h0Zm-5.74,1.94h2.32c-.02-.71-.47-1.17-1.14-1.17s-1.13.47-1.18,1.17Zm3.21,1.38c-.12.84-.94,1.42-1.99,1.42-1.35,0-2.19-.9-2.19-2.36s.85-2.4,2.15-2.4,2.09.88,2.09,2.29v.33h-3.27v.05c0,.8.5,1.32,1.25,1.32.53,0,.94-.25,1.07-.65h.9,0Zm-8.89-3.27h.91v.79h.02c.28-.56.74-.84,1.46-.84,1.02,0,1.61.66,1.61,1.72v2.97h-.96v-2.79c0-.69-.32-1.08-.99-1.08s-1.1.48-1.1,1.2v2.67h-.95v-4.63Zm-.94,4.63h-.91v-.8h-.03c-.27.56-.72.85-1.43.85-1.01,0-1.63-.65-1.63-1.71v-2.97h.95v2.79c0,.71.34,1.08.99,1.08s1.1-.47,1.1-1.2v-2.67h.95v4.63Zm-6.91,0v-5.51h-1.95v-.85h4.88v.85h-1.95v5.51h-.99,0Zm-3.49,0h.95v-4.63h-.95v4.63Zm-.07-5.86c0-.31.24-.55.55-.55s.56.24.56.55-.25.54-.56.54-.55-.24-.55-.54h0Z"/><path class="cls-1" d="m6.51,1.63s-.05.04-.07.07v.02s-.06.08-.08.13l-.15.41-.86,2.64h2.46l-.86-2.63-.15-.41s-.04-.09-.07-.13v-.02s-.05-.05-.08-.07c-.02-.02-.05-.03-.08-.03-.03,0-.05.01-.08.03"/><path class="cls-5" d="m6.59,8.67l2.24,1.63.36.25c.05.03.09.05.14.07h.02s.06.02.09.02c.03,0,.06-.01.08-.03.02-.02.04-.04.05-.07.01-.03.02-.06.02-.09v-.02c0-.05,0-.1-.02-.15-.04-.14-.08-.28-.12-.42l-.86-2.63-1.99,1.45h0Z"/><path class="cls-4" d="m2.59,4.89l-.44.02c-.05,0-.1.01-.15.03h-.02s-.06.03-.09.05c-.02.02-.04.04-.05.07,0,.03,0,.05,0,.08,0,.03.02.06.04.09v.02s.08.08.11.11c.12.1.23.18.35.27l2.24,1.63.75-2.35h-2.77Z"/><path class="cls-6" d="m3.74,9.86c-.05.14-.09.28-.13.42-.01.05-.02.1-.02.15v.02s0,.07.02.09c.01.03.03.05.05.07s.05.03.08.03c.03,0,.06,0,.09-.01h.02s.13-.07.13-.07c.12-.08.24-.16.36-.26l2.24-1.62-1.26-.92-.73-.53-.86,2.63h0Z"/><path class="cls-3" d="m7.82,4.89l.76,2.35,2.24-1.63c.12-.09.23-.17.35-.27.04-.03.08-.07.1-.1l.02-.02s.03-.06.04-.09c0-.03,0-.05,0-.08-.01-.03-.03-.05-.05-.07-.02-.02-.05-.04-.08-.05h-.02c-.05-.02-.1-.03-.15-.03-.14-.01-.29-.02-.43-.02h-2.77Z"/><path class="cls-7" d="m5.36,4.89l-.76,2.35.73.53,1.26.92,1.99-1.45-.75-2.34h-2.46Z"/></svg>