<?xml version="1.0" encoding="UTF-8"?><svg id="Layer_9" xmlns="http://www.w3.org/2000/svg" width="64" height="64" viewBox="0 0 64 64"><path d="m50.93,28.37c-10.31-6.13-27.33-6.69-37.18-3.7-1.58.48-3.25-.41-3.73-1.99-.48-1.58.41-3.25,1.99-3.73,11.3-3.43,30.09-2.77,41.97,4.28,1.42.84,1.89,2.68,1.05,4.1-.84,1.42-2.68,1.89-4.1,1.05m-.34,9.07c-.72,1.17-2.26,1.54-3.43.82-8.6-5.29-21.71-6.82-31.89-3.73-1.32.4-2.71-.35-3.11-1.66-.4-1.32.35-2.71,1.66-3.11,11.62-3.53,26.07-1.82,35.95,4.25,1.17.72,1.54,2.26.82,3.43m-3.92,8.71c-.57.94-1.8,1.24-2.74.67,0,0,0,0,0,0-7.51-4.59-16.97-5.63-28.11-3.09-1.07.25-2.14-.43-2.39-1.5,0,0,0,0,0,0-.25-1.07.42-2.14,1.5-2.39,0,0,0,0,0,0,12.19-2.79,22.65-1.59,31.08,3.57.94.57,1.24,1.8.66,2.74,0,0,0,0,0,0M32,0C14.33,0,0,14.33,0,32s14.33,32,32,32,32-14.33,32-32S49.67,0,32,0" style="fill:#f3f0eb;"/></svg>