<?xml version="1.0" encoding="UTF-8"?><svg id="Layer_9" xmlns="http://www.w3.org/2000/svg" width="64" height="64" viewBox="0 0 64 64"><path d="m60.32,27.44v-11.17c-5.23,0-9.22-1.4-11.8-4.11-2.64-3.1-4.13-7.02-4.19-11.09V.26l-10.56-.26v45.37c-.98,5.34-6.1,8.88-11.44,7.9-5.34-.98-8.88-6.1-7.9-11.44.98-5.34,6.1-8.88,11.44-7.9.52.1,1.03.23,1.53.41v-10.82c-1.11-.18-2.22-.27-3.34-.28-11.25,0-20.38,9.12-20.38,20.38s9.12,20.38,20.38,20.38,20.38-9.12,20.38-20.38c0-.84-.05-1.67-.16-2.5v-18c4.8,3,10.39,4.5,16.05,4.31Z" style="fill:#f3f0eb;"/></svg>