<?xml version="1.0" encoding="UTF-8"?><svg id="Layer_9" xmlns="http://www.w3.org/2000/svg" width="64" height="64" viewBox="0 0 64 64"><path d="m62.68,16.92h0c-.73-2.74-2.87-4.9-5.6-5.63-4.94-1.33-24.73-1.33-24.73-1.33,0,0-19.8,0-24.73,1.33-2.72.73-4.87,2.89-5.6,5.63-1.32,4.97-1.32,15.34-1.32,15.34,0,0,0,10.37,1.32,15.34.73,2.74,2.87,4.9,5.6,5.63,4.94,1.33,24.73,1.33,24.73,1.33,0,0,19.8,0,24.73-1.33,2.72-.73,4.87-2.89,5.6-5.63,1.32-4.97,1.32-15.34,1.32-15.34,0,0,0-10.37-1.32-15.34Zm-36.81,24.75v-18.83l16.55,9.41-16.55,9.41Z" style="fill:#f3f0eb;"/></svg>