<?xml version="1.0" encoding="UTF-8"?><svg id="Layer_1" xmlns="http://www.w3.org/2000/svg" width="62.75" height="14" viewBox="0 0 62.75 14"><defs><style>.cls-1{fill:#fff;}.cls-2{fill:red;}.cls-3{fill:#282828;}</style></defs><g id="g7433"><path id="path7429" class="cls-2" d="m19.58,2.19c-.23-.86-.91-1.53-1.76-1.76-1.56-.43-7.82-.43-7.82-.43,0,0-6.26,0-7.82.41-.84.23-1.53.92-1.76,1.78-.41,1.56-.41,4.81-.41,4.81,0,0,0,3.26.41,4.81.23.86.91,1.53,1.76,1.76,1.58.43,7.82.43,7.82.43,0,0,6.26,0,7.82-.41.86-.23,1.53-.91,1.76-1.76.41-1.56.41-4.81.41-4.81,0,0,.02-3.26-.41-4.83h0Z"/><path id="polygon7431" class="cls-1" d="m8,4v6l5.2-3-5.2-3Z"/></g><g id="g7451"><g id="g7449"><path id="path7435" class="cls-3" d="m29.04,12.75c-.4-.26-.68-.68-.84-1.25-.16-.56-.25-1.32-.25-2.24v-1.27c0-.94.1-1.7.28-2.27.2-.58.49-.99.89-1.25.41-.26.94-.4,1.6-.4s1.17.13,1.56.4.68.69.86,1.25c.18.56.28,1.32.28,2.27v1.27c0,.94-.08,1.68-.26,2.26-.18.56-.46.99-.86,1.25s-.94.4-1.61.4c-.69-.02-1.25-.15-1.65-.41h0Zm2.22-1.38c.12-.28.16-.76.16-1.4v-2.73c0-.63-.05-1.09-.16-1.38-.12-.3-.3-.43-.58-.43-.26,0-.46.15-.56.43-.12.3-.16.76-.16,1.38v2.73c0,.64.05,1.12.16,1.4.1.28.3.43.58.43.26,0,.44-.13.56-.43Z"/><path id="path7437" class="cls-3" d="m59.44,9.27v.44c0,.56.02.99.05,1.27.03.28.1.49.21.61.1.13.26.2.49.2.3,0,.49-.12.61-.35s.16-.61.18-1.15l1.7.1c.02.08.02.18.02.31,0,.81-.21,1.42-.66,1.81s-1.07.59-1.88.59c-.97,0-1.65-.31-2.04-.92s-.59-1.55-.59-2.83v-1.53c0-1.32.2-2.27.61-2.88s1.1-.91,2.08-.91c.68,0,1.2.13,1.56.38s.61.64.76,1.15c.15.53.21,1.25.21,2.17v1.5h-3.31v.03Zm.25-3.69c-.1.13-.16.33-.2.61s-.05.71-.05,1.28v.63h1.45v-.63c0-.56-.02-.99-.05-1.28-.03-.3-.12-.49-.21-.61-.1-.12-.26-.18-.46-.18-.23-.02-.38.05-.48.18h0Z"/><path id="path7439" class="cls-3" d="m24.23,9.11L21.99.99h1.96l.79,3.67c.2.91.35,1.68.44,2.32h.05c.07-.46.21-1.22.44-2.31l.82-3.69h1.96l-2.27,8.12v3.89h-1.94v-3.89h-.02Z"/><path id="path7441" class="cls-3" d="m39.79,4.23v8.78h-1.55l-.16-1.07h-.05c-.41.81-1.05,1.22-1.89,1.22-.58,0-1-.2-1.28-.58s-.41-.97-.41-1.8v-6.56h1.98v6.44c0,.4.05.68.13.84s.23.25.43.25c.16,0,.33-.05.49-.16.16-.1.28-.23.35-.4v-6.97h1.98Z"/><path id="path7443" class="cls-3" d="m49.92,4.23v8.78h-1.55l-.16-1.07h-.05c-.41.81-1.05,1.22-1.89,1.22-.58,0-1-.2-1.28-.58-.28-.38-.41-.97-.41-1.8v-6.56h1.98v6.44c0,.4.05.68.13.84s.23.25.43.25c.16,0,.33-.05.49-.16.16-.1.28-.23.35-.4v-6.97h1.98Z"/><path id="path7445" class="cls-3" d="m45.16,2.59h-1.96v10.41h-1.93V2.59h-1.96V.99h5.85v1.6Z"/><path id="path7447" class="cls-3" d="m56.46,5.63c-.12-.56-.31-.96-.58-1.2s-.64-.38-1.1-.38c-.36,0-.71.1-1.02.31-.31.2-.56.48-.72.81h-.02V.54h-1.91v12.45h1.63l.2-.82h.05c.15.3.38.53.69.71.31.16.64.26,1.02.26.68,0,1.15-.31,1.47-.92s.48-1.58.48-2.88v-1.38c-.02-1-.07-1.78-.18-2.32h0Zm-1.81,3.57c0,.64-.03,1.14-.08,1.5s-.15.63-.26.77c-.13.15-.3.23-.49.23-.16,0-.31-.03-.44-.12-.13-.08-.25-.2-.33-.35v-4.97c.07-.23.18-.43.35-.59.16-.15.35-.23.53-.23.2,0,.36.08.46.23.12.16.18.43.23.79.05.38.07.91.07,1.58v1.15h-.02Z"/></g></g></svg>