<?xml version="1.0" encoding="UTF-8"?><svg id="Layer_1" xmlns="http://www.w3.org/2000/svg" width="63.94" height="17.88" viewBox="0 0 63.94 17.88"><defs><style>.cls-1{fill:#f68d11;}</style></defs><path class="cls-1" d="m22.9,15.44c-2.14,1.59-5.25,2.44-7.93,2.44-3.75,0-7.13-1.39-9.69-3.71-.2-.18-.02-.43.22-.29,2.76,1.61,6.17,2.58,9.69,2.58,2.38,0,4.99-.5,7.39-1.53.36-.16.67.24.31.5"/><path class="cls-1" d="m23.79,14.42c-.28-.35-1.81-.16-2.5-.08-.21.02-.24-.16-.05-.29,1.23-.87,3.24-.62,3.47-.33.23.29-.06,2.32-1.21,3.29-.18.15-.34.07-.27-.13.26-.65.84-2.11.56-2.46"/><path d="m21.33,7.92v-.84c0-.13.1-.21.21-.21h3.76c.12,0,.22.09.22.21v.72c0,.12-.1.28-.28.53l-1.94,2.79c.72-.02,1.48.09,2.14.46.15.08.19.21.2.33v.9c0,.12-.13.27-.28.19-1.15-.61-2.69-.67-3.97.01-.13.07-.27-.07-.27-.19v-.86c0-.14,0-.37.14-.58l2.25-3.25h-1.96c-.12,0-.22-.08-.22-.21"/><path d="m7.64,13.19h-1.14c-.11,0-.2-.09-.2-.19v-5.89c0-.12.09-.21.22-.21h1.06c.11,0,.2.09.21.2v.77h.02c.28-.74.8-1.09,1.5-1.09.72,0,1.16.35,1.48,1.09.28-.74.91-1.09,1.58-1.09.48,0,1,.2,1.32.64.36.5.29,1.21.29,1.85v3.72c0,.12-.1.21-.22.21h-1.14c-.11,0-.2-.1-.2-.21v-3.12c0-.25.02-.87-.04-1.1-.09-.4-.34-.51-.67-.51-.28,0-.57.19-.68.48-.12.3-.1.79-.1,1.13v3.12c0,.12-.1.21-.22.21h-1.14c-.12,0-.21-.1-.21-.21v-3.12c0-.66.1-1.63-.71-1.62-.82,0-.79.94-.79,1.63v3.12c0,.12-.09.21-.22.21"/><path d="m28.74,6.75c1.69,0,2.61,1.46,2.61,3.32,0,1.8-1.01,3.23-2.61,3.23-1.66,0-2.57-1.46-2.57-3.28,0-1.84.91-3.26,2.57-3.26m.01,1.2c-.84,0-.89,1.15-.89,1.88,0,.72,0,2.26.89,2.26.88,0,.93-1.24.93-2,0-.5-.02-1.09-.17-1.56-.13-.41-.38-.57-.75-.57"/><path d="m33.56,13.17h-1.14c-.11,0-.21-.1-.21-.21v-5.89c0-.11.1-.19.21-.19h1.06c.1,0,.18.07.2.16v.9h.02c.32-.81.77-1.19,1.56-1.19.51,0,1.01.18,1.33.69.3.47.3,1.27.3,1.84v3.71c0,.11-.1.19-.22.19h-1.15c-.11,0-.19-.08-.2-.18v-3.2c0-.65.07-1.59-.72-1.59-.28,0-.53.19-.66.47-.16.36-.18.72-.18,1.12v3.17c0,.12-.1.21-.22.21"/><path d="m20.37,12.1c-.21-.29-.43-.52-.43-1.06v-1.79c0-.76.05-1.45-.5-1.98-.44-.42-1.17-.57-1.72-.57-1.09,0-2.3.41-2.55,1.76-.03.15.08.22.17.24l1.11.12c.1,0,.18-.11.2-.21.1-.46.48-.69.92-.69.23,0,.5.09.64.3.16.24.14.56.14.83v.15c-.66.08-1.53.13-2.15.4-.72.31-1.22.95-1.22,1.88,0,1.19.75,1.79,1.71,1.79.81,0,1.26-.19,1.88-.84.21.3.28.45.66.76.09.05.19.04.27-.03h0c.23-.2.64-.56.88-.76.09-.08.07-.2,0-.3Zm-2.25-.51c-.18.32-.47.52-.79.52-.44,0-.7-.33-.7-.83,0-.97.87-1.16,1.7-1.16v.25c0,.45.01.82-.21,1.22Z"/><path d="m5.4,12.11c-.21-.29-.43-.52-.43-1.06v-1.79c0-.76.05-1.45-.51-1.98-.44-.42-1.16-.57-1.72-.57-1.09,0-2.3.41-2.55,1.76-.03.15.08.22.17.24l1.11.12c.1,0,.18-.11.2-.21.09-.46.48-.69.92-.69.23,0,.5.09.64.3.16.24.14.56.14.83v.15c-.66.08-1.53.13-2.15.4C.5,9.92,0,10.56,0,11.49c0,1.19.75,1.79,1.71,1.79.81,0,1.26-.19,1.88-.84.21.3.27.45.66.76.09.05.2.04.27-.03h0c.23-.2.64-.56.88-.76.09-.08.07-.2,0-.3Zm-2.25-.51c-.18.32-.47.52-.79.52-.44,0-.69-.33-.7-.83,0-.97.87-1.16,1.7-1.16v.25c0,.45.01.82-.21,1.22Z"/><polyline class="cls-1" points="44.18 5.27 38.72 5.28 38.72 4.32 44.17 4.32 44.18 5.27"/><polyline class="cls-1" points="44.17 3.84 38.72 3.84 38.72 2.88 44.17 2.88 44.17 3.84"/><polyline class="cls-1" points="44.17 2.4 38.72 2.4 38.72 1.44 44.17 1.44 44.17 2.4"/><polyline class="cls-1" points="44.17 .96 38.72 .96 38.72 0 44.17 0 44.17 .96"/><polyline class="cls-1" points="50.1 5.27 44.65 5.27 44.65 4.32 50.1 4.31 50.1 5.27"/><polyline class="cls-1" points="50.1 3.83 44.65 3.84 44.65 2.88 50.1 2.87 50.1 3.83"/><polyline class="cls-1" points="56.04 5.27 50.58 5.27 50.58 4.31 56.04 4.31 56.04 5.27"/><polyline class="cls-1" points="56.04 3.83 50.58 3.83 50.58 2.87 56.03 2.87 56.04 3.83"/><polyline class="cls-1" points="56.03 2.39 50.58 2.39 50.58 1.43 56.03 1.43 56.03 2.39"/><path d="m52.5,11.94s.05-.05.08-.05c.03,0,.06.01.1.03.57.28,1.14.44,1.58.43.62,0,1.04-.37,1.04-.92,0-.44-.22-.69-.83-.97-.87-.4-1.14-.54-1.45-.79-.4-.32-.6-.72-.6-1.22,0-1.04.82-1.78,1.97-1.78.67,0,1.67.32,1.67.54t-.03.09l-.23.47s-.08.08-.12.08c-.03,0-.05-.01-.1-.03-.49-.23-.87-.33-1.22-.33-.62,0-.99.32-.99.86,0,.24.09.47.26.63q.18.17,1.36.73c.96.46,1.3.88,1.3,1.65,0,1.09-.83,1.82-2.06,1.82-.65,0-1.39-.19-1.92-.5-.07-.04-.08-.06-.08-.11t.01-.05l.25-.56"/><path d="m57.39,7.1c0-.13,0-.16.14-.16h.69c.12,0,.14.03.14.16v5.84c0,.13-.1.22-.22.22h-.55c-.12,0-.2-.1-.2-.23v-5.84"/><path d="m63.64,8.07c-.04.06-.07.09-.1.09-.03,0-.07-.01-.1-.05-.64-.47-.89-.58-1.34-.58-1.04,0-1.57.82-1.57,2.41,0,1.62.48,2.43,1.44,2.42.52,0,.79-.12,1.53-.64.04-.03.06-.04.09-.04.04,0,.06.03.09.08l.19.49s.04.12.04.13c0,.07-.07.14-.21.25-.53.39-1.18.61-1.82.61-1.54,0-2.45-1.18-2.45-3.15,0-2.13,1-3.44,2.63-3.44.56,0,1.1.17,1.58.51.21.14.29.23.29.32v.08s-.3.51-.3.51"/><path d="m45.76,8.75c0-.73,0-1.98-1.67-1.98-.65,0-1.22.44-1.5.99-.2-.71-.64-.99-1.37-.99-.6,0-1.25.32-1.52.86v-.51c0-.11-.09-.2-.21-.21h-.58c-.11,0-.21.08-.22.19v5.86c0,.11.1.2.21.21h.58c.11,0,.21-.08.22-.19v-4.12c0-.98.72-1.26,1.18-1.26.7,0,.82.57.85,1.03v4.37c0,.11.12.17.23.18h.56c.11,0,.2-.09.21-.18v-4.17c.01-.95.72-1.23,1.18-1.23.71,0,.83.59.85,1.06v4.33c0,.08.08.15.18.17h0s.61,0,.61,0c.11,0,.21-.07.22-.16v-1.18s0-3.1,0-3.1"/><path d="m47.07,12.25c.12.33.59.99,1.54.99.89,0,1.41-.32,1.67-.86v.51c0,.11.09.2.2.21h.57c.11,0,.2-.08.21-.19v-5.86c0-.11-.09-.2-.2-.21h-.57c-.11,0-.2.08-.21.19v4.12c0,.98-.92,1.26-1.54,1.26-.69,0-.81-.57-.83-1.03v-4.37c-.02-.09-.11-.17-.23-.18h-.55c-.11,0-.2.07-.21.16v4.19s.03.75.15,1.08"/><path d="m58.21,4.34h-.69c-.13,0-.14.02-.14.14v.6s0,.1,0,.1c0,.12.03.14.14.14h.69c.13,0,.14-.02.14-.14v-.1s0-.5,0-.5v-.1c0-.12-.03-.14-.14-.14"/></svg>