<?xml version="1.0" encoding="UTF-8"?><svg id="Layer_1" xmlns="http://www.w3.org/2000/svg" width="64" height="22" viewBox="0 0 64 22"><defs><style>.cls-1{fill:#343433;}</style></defs><path class="cls-1" d="m10.1,11.46c-.02-1.26.51-2.23,1.6-2.94-.61-.91-1.52-1.42-2.72-1.53-.43-.04-.97.06-1.63.31-.71.27-1.11.4-1.2.4-.19,0-.55-.11-1.08-.34-.53-.23-.99-.34-1.37-.34-.63,0-1.22.19-1.77.53-.54.35-.98.82-1.31,1.41C.21,9.72,0,10.6,0,11.63,0,12.56.15,13.49.46,14.41c.29.89.65,1.66,1.1,2.33.4.61.74,1.05,1.04,1.33.43.43.86.64,1.31.62.29-.01.66-.12,1.13-.33.44-.19.87-.29,1.31-.29.41,0,.83.1,1.26.29.48.21.88.31,1.19.31.46-.02.88-.22,1.28-.6.14-.12.29-.29.45-.51.16-.22.34-.47.54-.77.14-.22.27-.45.41-.7.13-.25.25-.51.36-.79.05-.11.09-.23.13-.35s.08-.24.12-.36c-.37-.16-.7-.4-.99-.7-.65-.66-.98-1.47-.99-2.44Z"/><polygon class="cls-1" points="20.86 14.22 20.79 14.22 17.78 7.22 15.41 7.22 15.41 18.51 17.47 18.51 17.47 11.2 17.57 11.2 20.09 17 21.53 17 24.05 11.2 24.14 11.2 24.14 18.51 26.23 18.51 26.23 7.22 23.88 7.22 20.86 14.22"/><path class="cls-1" d="m8.23,5.75c.53-.67.79-1.39.79-2.16v-.15c0-.05,0-.1-.01-.15-.37.02-.75.14-1.17.36-.41.22-.75.49-1.02.82-.53.65-.8,1.34-.8,2.09v.15s0,.1.01.15c.82.08,1.55-.28,2.2-1.08Z"/><rect class="cls-1" x="50.35" y="7.22" width="2.32" height="11.28"/><path class="cls-1" d="m59.67,9.02c1.38,0,2.1,1.07,2.1,2.23h2.22v-.24c0-2.18-1.64-4-4.34-4-2.9,0-4.62,1.93-4.62,5.23v1.27c0,3.3,1.71,5.21,4.62,5.21s4.35-1.84,4.35-3.89v-.25h-2.22c0,1.17-.71,2.13-2.09,2.13s-2.3-1.02-2.3-3.19v-1.27c0-2.17.9-3.23,2.29-3.23Z"/><path class="cls-1" d="m35.1,14.35c0,1.51-.87,2.35-2.15,2.35s-2.16-.83-2.16-2.35v-7.13h-2.3v7.46c0,2.41,1.68,4.04,4.46,4.04s4.46-1.64,4.46-4.04v-7.46h-2.31s0,7.13,0,7.13Z"/><path class="cls-1" d="m45.09,11.94l-1.66-.38c-.98-.21-1.49-.65-1.49-1.3,0-.87.7-1.41,1.82-1.41,1.26,0,1.89.74,1.95,1.53h2.16c-.02-1.99-1.66-3.38-4.1-3.38-2.31,0-4.13,1.23-4.13,3.45,0,1.92,1.28,2.81,2.82,3.15l1.64.39c1.1.26,1.66.63,1.66,1.4,0,.88-.69,1.47-1.98,1.47-1.38,0-2.11-.74-2.18-1.58h-2.22c.03,1.6,1.07,3.46,4.29,3.46,2.7,0,4.37-1.36,4.37-3.58,0-2.05-1.35-2.85-2.95-3.21Z"/></svg>