<?xml version="1.0" encoding="UTF-8"?><svg id="Layer_1" xmlns="http://www.w3.org/2000/svg" width="64" height="18.16" xmlns:xlink="http://www.w3.org/1999/xlink" viewBox="0 0 64 18.16"><defs><style>.cls-1{fill:none;}.cls-2{clip-path:url(#clippath);}.cls-3{fill:#1ed760;}</style><clipPath id="clippath"><rect class="cls-1" x=".97" width="62.05" height="18.16"/></clipPath></defs><g class="cls-2"><path class="cls-3" d="m10.3.03C5.16.03,1,4.08,1,9.08s4.16,9.05,9.3,9.05,9.3-4.05,9.3-9.05S15.43.03,10.3.03h0Zm4.26,13.06c-.17.27-.52.35-.8.19-2.18-1.3-4.93-1.59-8.17-.87-.31.07-.62-.12-.69-.42-.07-.3.12-.61.44-.68,3.54-.79,6.58-.45,9.03,1.01.27.16.36.51.19.78Zm1.14-2.46c-.21.33-.66.44-1,.23-2.5-1.5-6.31-1.93-9.26-1.06-.38.11-.79-.1-.9-.47-.12-.37.1-.77.48-.88,3.38-1,7.57-.51,10.44,1.2.34.2.45.64.24.97Zm.1-2.57c-3-1.73-7.94-1.89-10.8-1.05-.46.14-.95-.12-1.08-.56-.14-.45.12-.92.58-1.06,3.28-.97,8.74-.78,12.19,1.21.41.24.55.76.3,1.16-.24.4-.78.54-1.19.3h0Zm10.5.33c-1.61-.37-1.89-.63-1.89-1.18,0-.52.5-.87,1.25-.87s1.44.27,2.19.81c.02.02.05.02.08.02.03,0,.05-.02.07-.04l.78-1.08s.02-.11-.02-.14c-.9-.7-1.9-1.04-3.08-1.04-1.73,0-2.94,1.01-2.94,2.46,0,1.55,1.04,2.1,2.85,2.53,1.54.34,1.79.63,1.79,1.15,0,.57-.52.93-1.37.93-.94,0-1.7-.31-2.56-1.03-.02-.02-.05-.03-.08-.02-.03,0-.05.02-.07.04l-.88,1.02s-.03.11,0,.14c.99.86,2.22,1.32,3.54,1.32,1.87,0,3.07-.99,3.07-2.53,0-1.3-.79-2.02-2.75-2.48h0Zm6.98-1.54c-.81,0-1.47.31-2.02.95v-.72c0-.06-.05-.1-.1-.1h-1.44c-.06,0-.1.05-.1.1v7.96c0,.06.05.1.1.1h1.44c.06,0,.1-.05.1-.1v-2.51c.55.6,1.21.89,2.02.89,1.5,0,3.03-1.13,3.03-3.28,0-2.16-1.52-3.28-3.03-3.28h0Zm1.36,3.28c0,1.1-.69,1.86-1.69,1.86s-1.72-.8-1.72-1.86.74-1.86,1.72-1.86c.98,0,1.69.78,1.69,1.86Zm5.57-3.28c-1.94,0-3.45,1.45-3.45,3.31s1.51,3.27,3.43,3.27,3.47-1.45,3.47-3.29-1.51-3.28-3.44-3.28Zm0,5.16c-1.03,0-1.81-.81-1.81-1.87s.75-1.85,1.78-1.85,1.82.81,1.82,1.88-.75,1.85-1.79,1.85Zm7.58-5.03h-1.58v-1.57c0-.06-.05-.1-.1-.1h-1.44c-.06,0-.11.05-.11.1v1.57h-.69c-.06,0-.1.05-.1.1v1.2c0,.06.05.1.1.1h.69v3.11c0,1.26.64,1.9,1.91,1.9.52,0,.94-.1,1.35-.33.03-.02.05-.05.05-.09v-1.15s-.02-.07-.05-.09c-.03-.02-.07-.02-.1,0-.28.14-.54.2-.84.2-.46,0-.67-.2-.67-.66v-2.89h1.58c.06,0,.1-.05.1-.1v-1.2c0-.06-.04-.1-.1-.1h0Zm5.51,0v-.19c0-.57.22-.82.73-.82.3,0,.54.06.81.15.03.01.07,0,.09-.01.03-.02.04-.05.04-.08v-1.18s-.03-.08-.07-.1c-.28-.08-.65-.17-1.19-.17-1.33,0-2.03.73-2.03,2.1v.3h-.69c-.06,0-.11.05-.11.1v1.21c0,.06.05.1.11.1h.69v4.8c0,.06.05.1.11.1h1.44c.06,0,.11-.05.11-.1v-4.8h1.34l2.06,4.8c-.23.5-.46.6-.78.6-.25,0-.52-.07-.79-.22-.03-.01-.06-.02-.08,0-.03,0-.05.03-.06.06l-.49,1.04s0,.11.05.13c.51.27.97.38,1.53.38,1.06,0,1.65-.48,2.16-1.78l2.49-6.27s0-.07-.01-.1c-.02-.03-.05-.04-.09-.04h-1.5s-.09.03-.1.07l-1.53,4.26-1.68-4.27s-.05-.07-.1-.07h-2.46Zm-3.19,0h-1.44c-.06,0-.11.05-.11.1v6.11c0,.06.05.1.11.1h1.44c.06,0,.11-.05.11-.1v-6.11c0-.06-.05-.1-.11-.1Zm-.71-2.78c-.57,0-1.03.45-1.03,1s.46,1,1.03,1,1.03-.45,1.03-1-.46-1-1.03-1Zm12.59,4.74c-.57,0-1.01-.44-1.01-.99s.45-.99,1.02-.99,1.01.44,1.01.98-.45.99-1.02.99Zm0-1.88c-.52,0-.91.4-.91.89s.39.89.9.89.91-.4.91-.89-.39-.89-.9-.89Zm.22.99l.29.39h-.24l-.26-.36h-.22v.36h-.2v-1.03h.47c.25,0,.41.12.41.33,0,.17-.1.27-.25.31h0Zm-.17-.47h-.26v.33h.26c.13,0,.21-.06.21-.16,0-.11-.08-.16-.21-.16Z"/></g></svg>