<?xml version="1.0" encoding="UTF-8"?><svg id="Layer_7" xmlns="http://www.w3.org/2000/svg" width="200" height="200" viewBox="0 0 200 200"><path d="m51.61,111.11c-6.13,0-11.11-4.99-11.11-11.11s4.99-11.11,11.11-11.11,11.11,4.99,11.11,11.11-4.99,11.11-11.11,11.11Z" style="fill:#fff;"/><path d="m51.61,89.39c5.85,0,10.61,4.76,10.61,10.61s-4.76,10.61-10.61,10.61-10.61-4.76-10.61-10.61,4.76-10.61,10.61-10.61m0-1c-6.41,0-11.61,5.2-11.61,11.61s5.2,11.61,11.61,11.61,11.61-5.2,11.61-11.61-5.2-11.61-11.61-11.61h0Z" style="fill:#fff;"/><path d="m100,111.11c-6.13,0-11.11-4.99-11.11-11.11s4.99-11.11,11.11-11.11,11.11,4.99,11.11,11.11-4.99,11.11-11.11,11.11Z" style="fill:#fff;"/><path d="m100,89.39c5.85,0,10.61,4.76,10.61,10.61s-4.76,10.61-10.61,10.61-10.61-4.76-10.61-10.61,4.76-10.61,10.61-10.61m0-1c-6.41,0-11.61,5.2-11.61,11.61s5.2,11.61,11.61,11.61,11.61-5.2,11.61-11.61-5.2-11.61-11.61-11.61h0Z" style="fill:#fff;"/><path d="m148.39,111.11c-6.13,0-11.11-4.99-11.11-11.11s4.99-11.11,11.11-11.11,11.11,4.99,11.11,11.11-4.99,11.11-11.11,11.11Z" style="fill:#fff;"/><path d="m148.39,89.39c5.85,0,10.61,4.76,10.61,10.61s-4.76,10.61-10.61,10.61-10.61-4.76-10.61-10.61,4.76-10.61,10.61-10.61m0-1c-6.41,0-11.61,5.2-11.61,11.61s5.2,11.61,11.61,11.61,11.61-5.2,11.61-11.61-5.2-11.61-11.61-11.61h0Z" style="fill:#fff;"/></svg>