<?xml version="1.0" encoding="UTF-8"?><svg id="Layer_1" xmlns="http://www.w3.org/2000/svg" width="493" height="329" xmlns:xlink="http://www.w3.org/1999/xlink" viewBox="0 0 493 329"><defs><style>.cls-1{fill:none;}.cls-2{clip-path:url(#clippath);}.cls-3{fill:#f3f0eb;}</style><clipPath id="clippath"><rect class="cls-1" x="3.34" y=".17" width="486.33" height="328.59"/></clipPath></defs><g class="cls-2"><path class="cls-3" d="m186.62,217.65c.76,3.78,2.52,7.56,4,7.56,44.35-5.03,88.94-7.55,133.57-7.56,66.16,0,149.83,7.56,151.21,7.56s5.3-1.13,8.45-1.13,4.66.5,5.79.13c1.13-.37-47.75-16.89-165.2-16.89s-137.86,10.33-137.86,10.33"/><path class="cls-3" d="m478.46,162.67c-10.59,0-13.61-10.2-13.61-20.79s6.42-24.19,5.67-30.62c-.75-6.43-12.48-7.56-16.26-5.29-7.45,4.47-19.23,16.66-29.49,30.05-7.57,10.03-14.64,20.44-21.16,31.19,0,0,11.71-38.94,27.21-71.83,15.5-32.89,39.32-77.49,37.05-82-2.27-4.51-13.23-9.07-15.12-8.69-1.89.38-17,24.19-31.38,52.92s-22.3,46.5-22.3,46.5c-9.45,11.34-36.67,35.54-40.07,35.54s-.76-14,6-27.6c6.76-13.6,24.58-29.87,22.69-32.89-1.89-3.02-12.48-7.18-13.61-7.18s-23.06,21.35-23.06,21.35c-23.06-14.36-42,4.73-42,4.73-11.09-.22-22.11,1.9-32.33,6.21,1-9,1.21-15.37,1-16.8-1.14-6-16.76-12.85-17.77-12.09-1.01.76-4.16,25.07-4.16,25.07,0,0-26,8.26-61.54,31.47,4-24.32,3.51-37.95,2.95-39.15-1.52-3.22-17.2-7.75-19.66-6.81-1.77.68-9.45,3.41-27.6,19.66-18.15,16.25-39.69,42-41.58,42s-2.65-9.83,2.26-22.68,15.32-24.91,15.13-26.46c-.38-3-13.42-7.18-16.32-6.43-1.16.3-5.23,5.29-10.9,12.85-30.67,40.9-71.83,110-77.5,110-8.7,0,13.48-64.51,28.1-102.82,14.62-38.31,37.69-94.32,36.79-100.32-.63-4.41-14.68-11.59-18.65-11.59-4.71,0-28.23,53.93-48.21,115.93-19.98,62-21.85,105.6,0,105.6,11.41,0,28.58-30.45,45.18-54.44,12.95-18.7,25-36.67,25-36.67-1.89,22.87,10.27,25.58,17.83,25.58s16.69-9.41,35.85-29.79,32.26-28,32.26-28c0,0,1.48,14.62-5.77,51.06-37.92,28.35-78.77,65.3-103.1,98.64-27.23,37.33-22.69,80.68,13.09,80.68s69.52-43.85,94.26-116.94c7.54-22.01,13.65-44.48,18.31-67.28,41.16-30.54,62.21-37.06,62.21-37.06,0,0-.32,3.64-1.06,9.32-16.15,9.27-32.11,19.61-41.91,34.16-12.47,18.52-2.64,38.93,16.64,38.93,30.58,0,43.31-46.84,47.84-77.27,16.33-7.65,28.23-7.16,28.23-7.16-8.32,14.62-2.27,26.22,8.57,26.22s34.78-29.74,34.78-29.74c0,0-6,9.07-6,23.69s8.32,19.66,16.63,19.66,37.81-31.38,37.81-31.38c-12.1,39.69-12.86,70.69-12.1,73.34.76,2.65,14.74,3.4,16.25,3,1.51-.4,6.56-18.05,20.42-38.18,9.82-14.18,20.95-27.41,33.23-39.52,0,0-4.12,11.73-4.12,23.45,0,26.05,21.74,28.42,27.21,28.42,6.62,0,12.89-4.84,12.67-5.17s-6,3.4-10.77,3.4m-70.21-74.49c2.46-5.37,4.95-10.65,5.53-11.79.29-.57,1.12-2.25,2.21-4.47,9.37-19,9.53-19,9.79-19h.05l.09.05v.09c.31.91-10.77,23.27-10.88,23.5-.44.87-1.53,3.12-2.91,6-7.76,16.07-7.89,16.07-8.16,16.07h-.12c-.23-.15-.35-.23,4.32-10.42M58.89,15.32c.28-1.21,5.2-10.87,6-10.87l.19.1-.1.2-5.71,11.01-.1.19-.2-.1c-.21-.11-.15-.39-.12-.49m-26.49,67.89c12-33.2,12.39-33.2,12.6-33.2h.06c.25.07.21.4.19.56-.4,3.2-9.55,28.26-12.35,35.87-2.93,8-6,16.06-8.29,22.17-3.84,10-4,10-4.21,10h-.06c-.08,0-.2-.09-.16-.33.2-1.36,6.3-18.69,12.22-35.1m-20.07,66.64c-.77,3.54-1.84,8.39-2.74,13.48-1,5.55-1.83,11.36-2.46,15.6-1,7.11-1.06,7.11-1.38,7.11h-.11l-.07-.08c-.39-.47.92-12.66,2.74-22.7,1-5.52,2.2-10.41,2.83-12.84,1.52-5.83,1.76-5.83,1.93-5.83h.11v.08c.13.2,0,.73-.94,5.16m54.88,11.16c-3.19,4.67-7.15,10.48-9.87,14.67-2.52,3.88-14.51,22-15.19,22h-.09l-.06-.06c-.2-.17-.3-.26,4.77-8.12,2.62-4.08,6.2-9.54,9.56-14.6,3.89-5.85,15.74-22.73,16.37-22.73h.12l.08.06v.09c0,.2-.14.52-5.71,8.69m81.9,15.43c1.43-1.56,9.41-8.53,10.16-8.53h.24v.2c0,.14-.07.28-.49.73-1.45,1.52-9.35,8.36-10.05,8.36h-.23v-.2c0-.11,0-.23.36-.57m-66.34,66.14c0-.41,3.51-4.72,4.21-5.58,4.25-5.21,4.64-5.21,4.79-5.21v.43l-.11.08c-2.48,3.62-5.28,7-8.38,10.11-.04.05-.07.11-.1.17h-.13v.2h-.1l-.07-.06-.07-.08v-.09l-.04.03Zm71.87-33.8c-23.69,80.68-51.24,113.45-74.59,113.45s-26.21-35.29-5-65.53c19.58-28,47-56,91.24-91.92-2.89,12.6-6.65,27.19-11.6,44m68.3-24.45c-7.56,0-17.07-16.25-6.18-31.25,7.65-10.52,18.59-20.48,35.24-27.76-3.63,22.71-12.09,59-29.06,59m40.76-31.34c-1.35,3.52-6.41,15-7.24,15h-.14c-.29-.2-.18-.52,1.58-4.31,1.49-3.21,3.74-8.05,5.33-12.64,1.16-3.38,2.37-7.23,3.43-10.62,2.4-7.64,2.65-8.25,3-8.25h.13l.07.09c.45.69-4.46,16.3-6.18,20.73m49.71-27.19c-4.15,0,3.41-14.94,12.1-21.74s19.47-8.51,21.74-8.7c0,0-29.68,30.44-33.84,30.44Z"/></g></svg>